<?xml version="1.0" encoding="UTF-8"?>
<svg xmlns="http://www.w3.org/2000/svg" xmlns:xlink="http://www.w3.org/1999/xlink" width="36px" height="36px" viewBox="0 0 36 36" version="1.1">
<g id="surface1">
<path style=" stroke:none;fill-rule:nonzero;fill:rgb(0%,0%,0%);fill-opacity:1;" d="M 5.785156 22.527344 C 5.4375 22.527344 5.121094 22.527344 4.808594 22.527344 C 4.351562 22.523438 4.292969 22.476562 4.269531 22.007812 C 4.25 21.601562 4.21875 21.199219 4.125 20.695312 C 3.902344 21.203125 3.839844 21.640625 3.742188 22.070312 C 3.660156 22.414062 3.511719 22.5625 3.148438 22.53125 C 2.785156 22.503906 2.421875 22.519531 2.058594 22.527344 C 1.789062 22.535156 1.664062 22.425781 1.644531 22.152344 C 1.527344 20.320312 1.402344 18.488281 1.277344 16.65625 C 1.257812 16.367188 1.230469 16.078125 1.214844 15.789062 C 1.203125 15.578125 1.285156 15.457031 1.519531 15.429688 C 1.859375 15.394531 2.195312 15.367188 2.53125 15.363281 C 2.785156 15.359375 2.910156 15.453125 2.929688 15.714844 C 2.96875 16.304688 3.027344 16.890625 3.125 17.492188 C 3.261719 16.921875 3.414062 16.355469 3.53125 15.78125 C 3.605469 15.4375 3.753906 15.320312 4.132812 15.269531 C 5.121094 15.140625 5.351562 15.507812 5.398438 16.453125 C 5.410156 16.660156 5.460938 16.871094 5.550781 17.082031 C 5.652344 16.601562 5.757812 16.125 5.859375 15.644531 C 5.949219 15.226562 6.042969 15.15625 6.453125 15.242188 C 6.722656 15.300781 6.992188 15.382812 7.265625 15.425781 C 7.589844 15.476562 7.683594 15.636719 7.613281 15.957031 C 7.191406 17.828125 6.78125 19.703125 6.367188 21.578125 C 6.320312 21.777344 6.28125 21.980469 6.238281 22.179688 C 6.191406 22.410156 6.078125 22.558594 5.785156 22.527344 Z M 5.785156 22.527344 "/>
<path style=" stroke:none;fill-rule:nonzero;fill:rgb(0%,0%,0%);fill-opacity:1;" d="M 16.898438 22.222656 C 16.609375 21.605469 16.308594 21.027344 15.964844 20.46875 C 15.859375 20.300781 15.769531 20.191406 15.535156 20.257812 C 15.3125 20.324219 15.257812 20.445312 15.261719 20.652344 C 15.261719 21.113281 15.246094 21.570312 15.246094 22.03125 C 15.242188 22.328125 15.121094 22.476562 14.804688 22.457031 C 14.492188 22.4375 14.175781 22.441406 13.863281 22.453125 C 13.585938 22.464844 13.457031 22.347656 13.472656 22.066406 C 13.511719 21.441406 13.535156 20.8125 13.574219 20.1875 C 13.632812 19.273438 13.703125 18.359375 13.765625 17.445312 C 13.800781 16.9375 13.828125 16.433594 13.851562 15.925781 C 13.863281 15.660156 13.972656 15.492188 14.253906 15.460938 C 15.042969 15.378906 15.828125 15.238281 16.625 15.214844 C 18.386719 15.160156 18.804688 16.359375 18.652344 17.644531 C 18.578125 18.285156 18.308594 18.855469 17.796875 19.273438 C 17.582031 19.453125 17.59375 19.609375 17.714844 19.832031 C 17.984375 20.304688 18.21875 20.796875 18.484375 21.269531 C 18.621094 21.507812 18.582031 21.671875 18.351562 21.816406 C 18.054688 22 17.753906 22.183594 17.472656 22.390625 C 17.210938 22.574219 17.03125 22.550781 16.898438 22.222656 M 16.558594 17.972656 C 16.699219 17.800781 16.796875 17.605469 16.859375 17.398438 C 16.957031 17.058594 16.789062 16.839844 16.4375 16.871094 C 16.1875 16.894531 15.941406 16.964844 15.695312 17.019531 C 15.59375 17.042969 15.503906 17.105469 15.5 17.210938 C 15.488281 17.617188 15.34375 18.015625 15.4375 18.460938 C 15.855469 18.417969 16.222656 18.300781 16.558594 17.972656 Z M 16.558594 17.972656 "/>
<path style=" stroke:none;fill-rule:nonzero;fill:rgb(0%,0%,0%);fill-opacity:1;" d="M 21.050781 22.105469 C 21.042969 22.417969 20.882812 22.519531 20.625 22.519531 C 20.273438 22.515625 19.921875 22.515625 19.574219 22.527344 C 19.273438 22.535156 19.136719 22.386719 19.160156 22.109375 C 19.238281 21.289062 19.1875 20.464844 19.234375 19.644531 C 19.277344 18.933594 19.308594 18.222656 19.355469 17.511719 C 19.394531 16.859375 19.457031 16.210938 19.492188 15.5625 C 19.503906 15.289062 19.628906 15.203125 19.878906 15.210938 C 20.21875 15.21875 20.558594 15.222656 20.894531 15.210938 C 21.199219 15.199219 21.3125 15.339844 21.292969 15.628906 C 21.261719 16.0625 21.238281 16.496094 21.214844 16.929688 C 21.210938 16.988281 21.199219 17.050781 21.261719 17.097656 C 21.402344 17.101562 21.457031 16.980469 21.539062 16.898438 C 22.0625 16.363281 22.589844 15.832031 23.105469 15.289062 C 23.324219 15.058594 23.503906 15.066406 23.710938 15.292969 C 23.929688 15.535156 24.164062 15.761719 24.398438 15.992188 C 24.578125 16.164062 24.59375 16.328125 24.421875 16.523438 C 23.863281 17.160156 23.324219 17.8125 22.757812 18.441406 C 22.59375 18.625 22.601562 18.75 22.742188 18.941406 C 23.238281 19.625 23.714844 20.324219 24.214844 21.007812 C 24.390625 21.25 24.382812 21.433594 24.144531 21.625 C 23.859375 21.851562 23.59375 22.097656 23.316406 22.332031 C 23.035156 22.570312 22.941406 22.554688 22.722656 22.21875 C 22.292969 21.558594 21.886719 20.886719 21.398438 20.269531 C 21.316406 20.167969 21.253906 20.046875 21.050781 19.960938 C 21.050781 20.6875 21.050781 21.378906 21.050781 22.105469 Z M 21.050781 22.105469 "/>
<path style=" stroke:none;fill-rule:nonzero;fill:rgb(0%,0%,0%);fill-opacity:1;" d="M 9.292969 15.675781 C 10.609375 14.527344 12.433594 15.015625 12.914062 16.679688 C 13.347656 18.179688 13.21875 19.675781 12.554688 21.089844 C 12.007812 22.246094 10.871094 22.761719 9.734375 22.453125 C 9.039062 22.265625 8.519531 21.808594 8.335938 21.148438 C 7.785156 19.199219 7.945312 17.339844 9.292969 15.675781 M 11.199219 19.367188 C 11.304688 18.589844 11.371094 17.808594 11.222656 17.03125 C 11.183594 16.835938 11.113281 16.632812 10.894531 16.597656 C 10.652344 16.554688 10.515625 16.738281 10.429688 16.929688 C 9.960938 18.019531 9.894531 19.164062 10.015625 20.328125 C 10.039062 20.554688 10.144531 20.761719 10.402344 20.785156 C 10.65625 20.808594 10.800781 20.632812 10.898438 20.433594 C 11.054688 20.117188 11.128906 19.773438 11.199219 19.367188 Z M 11.199219 19.367188 "/>
<path style=" stroke:none;fill-rule:nonzero;fill:rgb(0%,0%,0%);fill-opacity:1;" d="M 31.128906 15.984375 C 31.378906 16.597656 31.550781 17.210938 31.902344 17.835938 C 32.195312 17.15625 32.453125 16.550781 32.714844 15.941406 C 33.011719 15.246094 33.011719 15.246094 33.773438 15.289062 C 34.738281 15.347656 34.769531 15.402344 34.40625 16.269531 C 33.878906 17.542969 33.335938 18.808594 32.84375 20.09375 C 32.644531 20.613281 32.695312 21.1875 32.6875 21.742188 C 32.679688 22.515625 32.683594 22.515625 31.902344 22.523438 C 31.660156 22.523438 31.417969 22.519531 31.175781 22.523438 C 30.914062 22.53125 30.792969 22.417969 30.816406 22.152344 C 30.851562 21.730469 30.859375 21.304688 30.925781 20.890625 C 30.960938 20.648438 30.929688 20.441406 30.847656 20.222656 C 30.355469 18.871094 29.867188 17.519531 29.386719 16.167969 C 29.230469 15.734375 29.273438 15.660156 29.710938 15.503906 C 29.929688 15.429688 30.152344 15.371094 30.359375 15.277344 C 30.675781 15.140625 30.867188 15.21875 30.960938 15.554688 C 30.996094 15.695312 31.0625 15.824219 31.128906 15.984375 M 32.394531 21.28125 C 32.394531 21.425781 32.394531 21.570312 32.394531 21.714844 C 32.421875 21.710938 32.445312 21.710938 32.46875 21.710938 C 32.46875 21.167969 32.46875 20.628906 32.46875 20.089844 C 32.445312 20.085938 32.421875 20.085938 32.398438 20.085938 C 32.398438 20.464844 32.398438 20.839844 32.394531 21.28125 Z M 32.394531 21.28125 "/>
<path style=" stroke:none;fill-rule:nonzero;fill:rgb(0%,0%,0%);fill-opacity:1;" d="M 24.816406 16.0625 C 24.824219 15.980469 24.832031 15.933594 24.839844 15.882812 C 24.945312 15.148438 24.945312 15.148438 25.71875 15.160156 C 26.660156 15.175781 26.78125 15.140625 26.679688 16.152344 C 26.554688 17.398438 26.554688 18.65625 26.503906 19.910156 C 26.484375 20.367188 26.492188 20.375 26.960938 20.367188 C 27.503906 20.359375 28.046875 20.335938 28.589844 20.316406 C 28.917969 20.300781 29.085938 20.425781 29.0625 20.78125 C 29.039062 21.144531 29.039062 21.507812 29.058594 21.871094 C 29.078125 22.21875 28.910156 22.34375 28.589844 22.363281 C 28.144531 22.386719 27.699219 22.382812 27.25 22.417969 C 26.492188 22.476562 25.730469 22.496094 24.972656 22.519531 C 24.609375 22.53125 24.527344 22.417969 24.546875 22.066406 C 24.613281 20.894531 24.671875 19.726562 24.722656 18.558594 C 24.761719 17.738281 24.785156 16.917969 24.816406 16.0625 Z M 24.816406 16.0625 "/>
</g>
</svg>
