<svg version="1.1" id="Layer_1" xmlns="http://www.w3.org/2000/svg" xmlns:xlink="http://www.w3.org/1999/xlink" x="0px" y="0px"
	 width="100%" viewBox="0 0 496 496" enable-background="new 0 0 496 496" xml:space="preserve">
<path fill="#000000" opacity="1.000000" stroke="none" 
	d="
M79.706490,310.374512 
	C74.908043,310.379272 70.575348,310.399231 66.242859,310.378174 
	C59.936245,310.347473 59.132420,309.665314 58.837646,303.229828 
	C58.581390,297.635193 58.151802,292.084869 56.810936,285.147522 
	C53.786640,292.105194 52.889278,298.186584 51.543221,304.064606 
	C50.451458,308.832092 48.369389,310.856293 43.366966,310.453522 
	C38.399887,310.053619 33.372379,310.250946 28.377640,310.398438 
	C24.640976,310.508850 22.924858,308.981903 22.680225,305.195709 
	C21.049706,279.960114 19.321920,254.730774 17.612579,229.500305 
	C17.342745,225.517456 16.946920,221.542511 16.720392,217.557587 
	C16.554628,214.641586 17.727333,212.951004 20.949089,212.593460 
	C25.592583,212.078125 30.222998,211.721298 34.895931,211.653229 
	C38.366341,211.602661 40.100376,212.909317 40.349827,216.524826 
	C40.909737,224.639938 41.698872,232.739227 43.035824,240.984100 
	C44.934959,233.144333 47.017143,225.342758 48.664764,217.450485 
	C49.657192,212.696686 51.729618,211.055984 56.923580,210.374161 
	C70.578468,208.581604 73.750992,213.677002 74.393372,226.663284 
	C74.536522,229.557144 75.249435,232.422836 76.475677,235.341125 
	C77.892494,228.751648 79.321281,222.164719 80.722527,215.571930 
	C81.955673,209.770035 83.272003,208.831589 88.907288,210.019653 
	C92.647499,210.808167 96.329987,211.917755 100.096252,212.523224 
	C104.581543,213.244278 105.889679,215.465454 104.900986,219.857407 
	C99.094444,245.650970 93.422356,271.474823 87.711456,297.289886 
	C87.100868,300.049957 86.517586,302.816254 85.948227,305.585114 
	C85.300262,308.736267 83.759949,310.781616 79.706490,310.374512 
z"/>
<path fill="#000000" opacity="1.000000" stroke="none" 
	d="
M232.808472,306.156067 
	C228.823318,297.670929 224.686996,289.698669 219.961792,282.030640 
	C218.533020,279.712036 217.284042,278.186890 214.054108,279.129211 
	C210.990372,280.023102 210.228210,281.702545 210.245941,284.560944 
	C210.285217,290.887604 210.069397,297.215424 210.039383,303.543152 
	C210.019928,307.645050 208.342148,309.653870 203.967941,309.390381 
	C199.653519,309.130493 195.307434,309.206299 190.983093,309.358398 
	C187.158188,309.492920 185.419006,307.916748 185.643799,304.048553 
	C186.145538,295.414917 186.489349,286.771637 187.042191,278.141541 
	C187.849762,265.535156 188.811752,252.938736 189.654007,240.334457 
	C190.119568,233.367538 190.528732,226.395828 190.858612,219.421310 
	C191.031494,215.765701 192.498154,213.425293 196.370270,213.015503 
	C207.270645,211.861832 218.081161,209.963654 229.081680,209.628784 
	C253.354279,208.889893 259.076294,225.415543 256.986725,243.076035 
	C255.942108,251.904877 252.248276,259.763824 245.212051,265.540039 
	C242.221252,267.995209 242.390015,270.188660 244.097931,273.235229 
	C247.759949,279.767456 251.030624,286.519135 254.693573,293.050842 
	C256.546417,296.354767 255.997452,298.600098 252.848434,300.555359 
	C248.747940,303.101410 244.636139,305.651794 240.720474,308.466370 
	C237.154800,311.029388 234.652222,310.704498 232.808472,306.156067 
M228.122543,247.598938 
	C230.061798,245.253510 231.437668,242.576431 232.274017,239.688110 
	C233.627594,235.013519 231.335388,232.017517 226.486938,232.451859 
	C223.037445,232.760895 219.641724,233.732697 216.241043,234.493744 
	C214.864746,234.801758 213.613251,235.679459 213.565186,237.128571 
	C213.380188,242.705353 211.382507,248.206528 212.703995,254.323929 
	C218.459686,253.731918 223.514252,252.123383 228.122543,247.598938 
z"/>
<path fill="#000000" opacity="1.000000" stroke="none" 
	d="
M290.024658,304.578583 
	C289.903595,308.844879 287.718811,310.267822 284.157715,310.255463 
	C279.326599,310.238708 274.492035,310.209808 269.664856,310.366882 
	C265.563568,310.500336 263.649048,308.458618 264.009583,304.613220 
	C265.069122,293.311310 264.336487,281.967896 265.005981,270.661102 
	C265.586090,260.863586 266.045258,251.058624 266.669312,241.264053 
	C267.240204,232.304169 268.090302,223.360489 268.552460,214.396027 
	C268.744385,210.672821 270.437469,209.473740 273.900940,209.572678 
	C278.561707,209.705795 283.233337,209.711319 287.893036,209.555283 
	C292.054321,209.415939 293.618805,211.373734 293.345856,215.334991 
	C292.934601,221.303940 292.600006,227.278336 292.268982,233.252426 
	C292.225372,234.038940 292.069000,234.925034 292.933502,235.583374 
	C294.854858,235.636459 295.634003,233.953217 296.739624,232.828781 
	C303.980743,225.464371 311.258148,218.132889 318.361115,210.636597 
	C321.357849,207.473892 323.812256,207.569687 326.679688,210.717331 
	C329.705994,214.039413 332.945007,217.171951 336.161499,220.315247 
	C338.620209,222.717972 338.839142,224.972885 336.476868,227.670441 
	C328.798126,236.438980 321.336273,245.399399 313.563354,254.082214 
	C311.301331,256.609039 311.425415,258.350861 313.316406,260.945404 
	C320.182587,270.366180 326.751923,280.003296 333.615692,289.425873 
	C336.069763,292.794830 335.930206,295.311035 332.636627,297.940582 
	C328.734680,301.055847 325.060120,304.454346 321.248779,307.684937 
	C317.377930,310.965942 316.068756,310.755524 313.055939,306.127289 
	C307.150360,297.055298 301.528717,287.791748 294.799103,279.282745 
	C293.688904,277.879059 292.845917,276.177612 290.042328,275.039124 
	C290.042328,285.014709 290.042328,294.568359 290.024658,304.578583 
z"/>
<path fill="#000000" opacity="1.000000" stroke="none" 
	d="
M128.015686,216.004089 
	C146.149399,200.134232 171.295578,206.899490 177.935471,229.804718 
	C183.920822,250.451996 182.127823,271.107056 172.960129,290.586639 
	C165.465591,306.511108 149.764587,313.632050 134.142548,309.378387 
	C124.561859,306.769684 117.385361,300.485626 114.827095,291.387299 
	C107.274895,264.528412 109.463539,238.884827 128.015686,216.004089 
M154.283066,266.832977 
	C155.742828,256.115509 156.654846,245.382416 154.614700,234.641373 
	C154.110504,231.986755 153.097122,229.170578 150.091599,228.658646 
	C146.791626,228.096558 144.866364,230.589722 143.721863,233.244492 
	C137.240982,248.277496 136.303726,264.044464 137.968826,280.081451 
	C138.293320,283.206696 139.762100,286.028168 143.333115,286.379730 
	C146.802902,286.721375 148.802734,284.290283 150.164612,281.508179 
	C152.297333,277.151398 153.307831,272.438690 154.283066,266.832977 
z"/>
<path fill="#000000" opacity="1.000000" stroke="none" 
	d="
M428.872253,220.247543 
	C432.358459,228.656372 434.681854,237.150635 439.559265,245.742996 
	C443.554260,236.401825 447.137115,228.030273 450.715210,219.656677 
	C454.825897,210.036697 454.824036,210.035904 465.317413,210.662491 
	C478.607483,211.456085 479.039764,212.203766 474.056000,224.178162 
	C466.767181,241.690811 459.297363,259.137665 452.506409,276.843323 
	C449.765137,283.990417 450.459961,291.920776 450.369629,299.546478 
	C450.243164,310.224762 450.333679,310.228760 439.518372,310.300293 
	C436.188202,310.322327 432.856537,310.267914 429.528046,310.349609 
	C425.943298,310.437622 424.281189,308.861938 424.594757,305.205322 
	C425.091858,299.408600 425.184814,293.554962 426.074951,287.822632 
	C426.590149,284.504730 426.123749,281.659576 425.019836,278.629547 
	C418.242981,260.028503 411.525543,241.405518 404.867126,222.761719 
	C402.741028,216.808701 403.339691,215.757095 409.360168,213.626938 
	C412.339722,212.572723 415.422943,211.766235 418.309387,210.504715 
	C422.646637,208.609116 425.285980,209.682083 426.557037,214.310883 
	C427.082672,216.225159 427.983398,218.036438 428.872253,220.247543 
M446.349701,293.220093 
	C446.349701,295.206451 446.349701,297.192841 446.349701,299.179199 
	C446.677704,299.155060 447.005737,299.130890 447.333740,299.106750 
	C447.333740,291.660736 447.333740,284.214722 447.333740,276.768707 
	C447.006683,276.763885 446.679596,276.759064 446.352539,276.754272 
	C446.352539,281.935394 446.352539,287.116547 446.349701,293.220093 
z"/>
<path fill="#000000" opacity="1.000000" stroke="none" 
	d="
M341.914795,221.297562 
	C342.041809,220.170898 342.127228,219.510529 342.222260,218.851562 
	C343.682922,208.720749 343.683594,208.695541 354.321838,208.877411 
	C367.296326,209.099197 369.012817,208.610291 367.609100,222.517273 
	C365.875214,239.695663 365.864990,257.049530 365.163147,274.329773 
	C364.906921,280.637451 364.996918,280.748322 371.464722,280.623993 
	C378.950317,280.480103 386.433868,280.194275 393.915588,279.900665 
	C398.447052,279.722809 400.721893,281.416382 400.413544,286.336456 
	C400.101685,291.312347 400.106049,296.333984 400.378845,301.313293 
	C400.642792,306.130524 398.305786,307.855438 393.912994,308.103851 
	C387.767548,308.451324 381.617615,308.361420 375.462036,308.848785 
	C365.019592,309.675598 354.529358,309.960297 344.053314,310.275879 
	C339.062714,310.426178 337.951172,308.854309 338.216034,304.005188 
	C339.095703,287.900085 339.905975,271.790588 340.631805,255.677780 
	C341.140839,244.377579 341.468811,233.069229 341.914795,221.297562 
z"/>
</svg>